<svg width="95" height="66" viewBox="0 0 95 66" fill="none" xmlns="http://www.w3.org/2000/svg">
<path d="M38.3407 6H14C9.58173 6 6 9.58172 6 14V33V52C6 56.4183 9.58172 60 14 60H35.3846C39.8029 60 43.3846 56.4183 43.3846 52V41C43.3846 36.5817 39.8029 33 35.3846 33H28.5495" stroke="white" stroke-width="12" stroke-linecap="square"/>
<path d="M56.1429 6H80.4835C84.9018 6 88.4835 9.58172 88.4835 14V33V52C88.4835 56.4183 84.9018 60 80.4835 60H59.0989C54.6806 60 51.0989 56.4183 51.0989 52V41C51.0989 36.5817 54.6806 33 59.0989 33H65.9341" stroke="white" stroke-width="12" stroke-linecap="square"/>
</svg>
