<?xml version="1.0" standalone="no"?>
<!DOCTYPE svg PUBLIC "-//W3C//DTD SVG 20010904//EN"
 "http://www.w3.org/TR/2001/REC-SVG-20010904/DTD/svg10.dtd">
<svg version="1.0" xmlns="http://www.w3.org/2000/svg"
 width="320.000000pt" height="320.000000pt" viewBox="0 0 320.000000 320.000000"
 preserveAspectRatio="xMidYMid meet">

<g transform="translate(0.000000,320.000000) scale(0.100000,-0.100000)"
fill="#000000" stroke="none">
<path d="M1900 2775 c0 -20 -5 -25 -25 -25 -20 0 -25 -5 -25 -25 0 -20 -5 -25
-25 -25 -20 0 -25 -5 -25 -25 0 -24 -2 -25 -75 -25 -73 0 -75 -1 -75 -25 0
-23 -3 -25 -50 -25 -47 0 -50 2 -50 25 0 23 -3 25 -50 25 -47 0 -50 2 -50 25
0 24 -2 25 -75 25 -73 0 -75 1 -75 25 0 20 -5 25 -25 25 -20 0 -25 -5 -25 -25
l0 -25 -100 0 -100 0 0 -25 0 -25 -175 0 -175 0 0 -25 c0 -20 -5 -25 -25 -25
-20 0 -25 -5 -25 -25 0 -20 -5 -25 -25 -25 l-25 0 0 -100 0 -100 25 0 c23 0
25 -3 25 -50 0 -47 2 -50 25 -50 20 0 25 -5 25 -25 0 -20 -5 -25 -25 -25 -24
0 -25 -2 -25 -75 0 -73 -1 -75 -25 -75 -20 0 -25 -5 -25 -25 0 -20 -5 -25 -25
-25 -23 0 -25 -3 -25 -50 0 -47 -2 -50 -25 -50 -24 0 -25 -2 -25 -75 0 -73 -1
-75 -25 -75 -23 0 -25 -3 -25 -50 0 -47 -2 -50 -25 -50 -20 0 -25 -5 -25 -25
0 -20 5 -25 25 -25 l25 0 0 -125 0 -125 25 0 c23 0 25 -3 25 -50 0 -47 -2 -50
-25 -50 l-25 0 0 -100 0 -100 25 0 c23 0 25 -3 25 -50 0 -47 2 -50 25 -50 20
0 25 -5 25 -25 0 -20 5 -25 25 -25 23 0 25 -3 25 -50 0 -47 2 -50 25 -50 20 0
25 -5 25 -25 0 -20 5 -25 25 -25 23 0 25 -3 25 -50 0 -47 2 -50 25 -50 20 0
25 -5 25 -25 0 -20 5 -25 25 -25 20 0 25 -5 25 -25 0 -23 3 -25 50 -25 l50 0
0 -100 0 -100 -25 0 c-23 0 -25 -3 -25 -50 0 -47 -2 -50 -25 -50 -20 0 -25 -5
-25 -25 0 -23 -3 -25 -50 -25 -47 0 -50 -2 -50 -25 0 -24 -2 -25 -75 -25 -73
0 -75 -1 -75 -25 0 -24 -2 -25 -75 -25 l-75 0 0 -50 0 -50 50 0 c47 0 50 2 50
25 0 20 5 25 25 25 20 0 25 5 25 25 0 20 5 25 25 25 20 0 25 -5 25 -25 0 -20
5 -25 25 -25 20 0 25 5 25 25 0 20 5 25 25 25 20 0 25 5 25 25 0 23 3 25 50
25 47 0 50 2 50 25 0 20 5 25 25 25 24 0 25 -2 25 -75 0 -73 1 -75 25 -75 20
0 25 -5 25 -25 0 -23 3 -25 50 -25 47 0 50 2 50 25 0 20 -5 25 -25 25 -23 0
-25 3 -25 50 0 47 -2 50 -25 50 -20 0 -25 5 -25 25 0 20 -5 25 -25 25 -20 0
-25 5 -25 25 0 20 5 25 24 25 23 0 25 5 28 48 3 40 6 47 25 50 20 3 22 10 25
75 3 66 5 72 26 75 18 3 22 -1 22 -22 0 -21 5 -26 25 -26 20 0 25 -5 25 -25 0
-23 3 -24 73 -27 66 -3 72 -5 75 -26 3 -16 10 -22 28 -22 19 0 24 -5 24 -25 0
-20 5 -25 25 -25 20 0 25 -5 25 -25 0 -20 5 -25 25 -25 20 0 25 -5 25 -25 l0
-25 150 0 150 0 0 25 c0 23 3 25 50 25 47 0 50 2 50 25 0 23 3 25 50 25 47 0
50 2 50 25 0 20 5 25 24 25 18 0 25 6 28 23 4 30 42 30 46 0 2 -14 11 -23 25
-25 14 -2 23 -11 25 -25 3 -17 10 -23 28 -23 19 0 24 -5 24 -25 0 -20 5 -25
25 -25 20 0 25 -5 25 -25 0 -20 5 -25 25 -25 20 0 25 -5 25 -25 0 -20 5 -25
25 -25 20 0 25 -5 25 -25 0 -20 5 -25 25 -25 23 0 25 -3 25 -50 l0 -50 50 0
c47 0 50 2 50 25 0 20 -5 25 -25 25 -20 0 -25 5 -25 25 0 24 2 25 75 25 73 0
75 -1 75 -25 0 -20 5 -25 25 -25 20 0 25 -5 25 -25 0 -20 5 -25 25 -25 20 0
25 5 25 25 0 20 5 25 25 25 20 0 25 -5 25 -25 0 -24 2 -25 75 -25 73 0 75 1
75 25 0 23 -3 25 -50 25 -47 0 -50 2 -50 25 0 23 -3 25 -50 25 -47 0 -50 2
-50 25 0 23 -3 25 -50 25 -47 0 -50 2 -50 25 l0 25 -125 0 -125 0 0 25 c0 23
-3 25 -50 25 -47 0 -50 2 -50 25 0 20 -5 25 -25 25 -20 0 -25 5 -25 25 0 20
-5 25 -25 25 -24 0 -25 2 -25 75 0 73 1 75 25 75 20 0 25 5 25 25 0 20 5 25
25 25 23 0 25 3 25 50 0 47 2 50 25 50 24 0 25 2 25 75 0 73 1 75 25 75 24 0
25 2 25 75 l0 75 75 0 c73 0 75 -1 75 -25 0 -20 5 -25 25 -25 20 0 25 5 25 25
l0 25 100 0 100 0 0 25 c0 20 5 25 25 25 24 0 25 2 25 75 0 73 1 75 25 75 23
0 25 3 25 50 0 47 -2 50 -25 50 -20 0 -25 5 -25 25 0 20 -5 25 -25 25 -20 0
-25 5 -25 25 0 23 -3 25 -50 25 l-50 0 0 75 c0 73 1 75 25 75 20 0 25 5 25 25
0 24 2 25 75 25 73 0 75 1 75 25 0 20 -5 25 -25 25 -20 0 -25 5 -25 25 0 20
-5 25 -25 25 -20 0 -25 5 -25 25 0 20 5 25 25 25 20 0 25 5 25 25 0 23 3 25
50 25 47 0 50 2 50 25 0 20 5 25 25 25 l25 0 0 100 0 100 -25 0 c-23 0 -25 3
-25 50 0 47 -2 50 -25 50 -20 0 -25 5 -25 25 0 23 -3 25 -50 25 -47 0 -50 2
-50 25 0 23 -3 25 -50 25 -47 0 -50 2 -50 25 0 20 -5 25 -25 25 -23 0 -25 3
-25 50 0 47 -2 50 -25 50 -23 0 -25 3 -25 50 0 47 -2 50 -25 50 -24 0 -25 2
-25 75 0 73 -1 75 -25 75 -23 0 -25 3 -25 50 0 47 -2 50 -25 50 -20 0 -25 5
-25 25 0 20 -5 25 -25 25 -20 0 -25 5 -25 25 l0 25 -150 0 -150 0 0 -25z m340
-150 c0 -25 -23 -35 -35 -15 -10 16 2 40 20 40 9 0 15 -9 15 -25z m52 -107 c3
-66 5 -73 25 -76 19 -3 22 -11 25 -50 3 -40 6 -47 26 -50 28 -4 31 -42 3 -42
-17 0 -20 -8 -23 -47 -3 -40 -6 -48 -23 -48 -13 0 -21 8 -23 22 -2 14 -11 23
-25 25 -22 3 -22 7 -25 171 -2 161 -2 167 17 167 18 0 20 -8 23 -72z m-1497 7
c0 -13 -8 -21 -22 -23 -14 -2 -23 -11 -25 -25 -2 -14 -10 -22 -23 -22 -15 0
-21 8 -23 33 -5 54 2 64 50 60 35 -2 43 -7 43 -23z m953 -202 c3 -19 11 -22
50 -25 40 -3 47 -6 50 -25 2 -14 11 -23 25 -25 14 -2 23 -11 25 -25 2 -14 11
-23 25 -25 20 -3 22 -10 25 -75 3 -65 5 -72 25 -75 20 -3 22 -9 25 -75 3 -65
5 -72 25 -75 14 -2 22 -10 22 -23 0 -17 -8 -20 -47 -23 -39 -3 -47 -6 -50 -25
-4 -30 -42 -30 -46 1 -3 19 -9 22 -53 22 -46 0 -49 -2 -49 -25 0 -23 -3 -25
-50 -25 l-50 0 0 -50 c0 -47 -2 -50 -25 -50 -23 0 -25 -3 -25 -50 0 -47 2 -50
25 -50 23 0 25 -3 25 -50 0 -47 2 -50 25 -50 20 0 25 -5 25 -25 0 -20 5 -25
25 -25 20 0 25 -5 25 -25 0 -20 5 -25 25 -25 23 0 25 -3 25 -50 l0 -50 50 0
c47 0 50 2 50 25 0 20 -5 25 -25 25 -20 0 -25 5 -25 26 0 21 4 25 23 22 14 -2
23 -11 25 -25 3 -17 10 -23 28 -23 33 0 35 47 2 52 -15 2 -23 10 -23 23 0 29
39 27 43 -2 3 -20 9 -23 53 -23 46 0 49 -2 49 -25 0 -20 5 -25 25 -25 23 0 25
-3 25 -50 l0 -50 -50 0 c-47 0 -50 -2 -50 -25 0 -24 2 -25 75 -25 l76 0 -3
-122 c-3 -118 -4 -123 -25 -126 -20 -3 -22 -10 -25 -75 -3 -65 -5 -72 -25 -75
-14 -2 -23 -11 -25 -25 -2 -14 -11 -23 -25 -25 -17 -3 -23 -10 -23 -28 0 -19
-5 -24 -25 -24 -24 0 -25 -2 -25 -75 0 -73 -1 -75 -24 -75 -23 0 -25 -5 -28
-47 l-3 -48 -47 -3 c-43 -3 -48 -5 -48 -28 0 -22 -4 -24 -50 -24 -47 0 -50 2
-50 25 l0 25 -100 0 -100 0 0 -25 0 -25 -172 2 c-170 3 -173 3 -176 25 -3 19
-11 22 -50 25 -40 3 -47 6 -50 25 -2 14 -11 23 -25 25 -14 2 -23 11 -25 25 -2
14 -11 23 -25 25 -14 2 -23 11 -25 25 -2 14 -11 23 -25 25 -19 3 -22 10 -25
50 -3 39 -6 47 -25 50 l-22 3 0 270 0 270 22 3 c21 3 22 9 25 100 3 91 4 97
25 100 14 2 23 11 25 25 3 22 6 22 201 25 l197 2 0 -25 c0 -20 5 -25 25 -25
20 0 25 -5 25 -25 0 -20 -5 -25 -25 -25 -20 0 -25 -5 -25 -25 0 -23 3 -25 50
-25 47 0 50 2 50 25 0 20 5 25 25 25 24 0 25 2 25 75 0 73 1 75 25 75 l25 0 0
100 0 100 -25 0 c-23 0 -25 -3 -25 -50 0 -47 -2 -50 -25 -50 -20 0 -25 -5 -25
-25 0 -20 -5 -25 -25 -25 -24 0 -25 2 -25 75 l0 75 50 0 50 0 0 50 c0 47 -2
50 -25 50 -20 0 -25 5 -25 24 0 23 -5 25 -47 28 -41 3 -48 6 -51 25 -3 20 -10
22 -75 25 l-72 3 0 145 0 145 47 3 c39 3 47 6 50 25 3 21 9 22 101 25 86 2 97
5 97 21 0 29 10 32 105 29 84 -3 90 -4 93 -25z m400 -96 c4 -20 -25 -34 -40
-19 -15 15 -1 44 19 40 10 -2 19 -11 21 -21z m250 -50 c4 -20 -25 -34 -40 -19
-15 15 -1 44 19 40 10 -2 19 -11 21 -21z m-200 -50 c4 -20 -25 -34 -40 -19
-15 15 -1 44 19 40 10 -2 19 -11 21 -21z m352 -6 c0 -13 8 -21 23 -23 20 -3
22 -8 22 -73 0 -65 -2 -70 -22 -73 -15 -2 -23 -10 -23 -23 0 -14 -7 -19 -25
-19 l-25 0 0 115 0 115 25 0 c18 0 25 -5 25 -19z m-1700 -251 c0 -13 7 -20 20
-20 17 0 20 -7 20 -45 0 -38 -3 -45 -20 -45 -13 0 -20 7 -20 19 0 13 -8 21
-22 23 -19 2 -24 10 -26 46 -3 39 -1 42 22 42 19 0 26 -5 26 -20z m500 -120
c0 -46 -2 -50 -24 -50 -18 0 -25 -6 -28 -22 -3 -21 -8 -23 -73 -23 l-70 0 -3
48 c-3 42 -5 47 -28 47 -19 0 -24 5 -24 25 l0 25 125 0 125 0 0 -50z m700 -49
c0 -44 3 -50 23 -53 14 -2 22 -10 22 -23 0 -18 -8 -20 -97 -23 l-98 -3 0 51
c0 47 2 50 25 50 18 0 25 5 25 18 0 27 9 32 57 32 l43 0 0 -49z m448 26 c4
-20 -25 -34 -40 -19 -15 15 -1 44 19 40 10 -2 19 -11 21 -21z m0 -104 c2 -15
10 -23 23 -23 28 0 25 -38 -3 -42 -15 -2 -24 -11 -26 -25 -2 -14 -11 -23 -25
-25 -20 -3 -22 -10 -25 -75 -3 -65 -5 -73 -22 -73 -18 0 -20 7 -20 70 0 62 -2
70 -19 70 -14 0 -20 10 -25 41 -7 47 -2 59 25 59 12 0 19 7 19 18 0 28 10 33
55 30 33 -2 41 -7 43 -25z m-1950 -196 c3 -62 1 -67 -18 -67 -18 0 -20 6 -20
71 0 62 2 70 18 67 14 -3 18 -16 20 -71z m47 -102 c0 -11 -8 -21 -17 -23 -14
-3 -18 3 -18 23 0 20 4 26 18 23 9 -2 17 -12 17 -23z m153 -398 c4 -20 -25
-34 -40 -19 -15 15 -1 44 19 40 10 -2 19 -11 21 -21z"/>
<path d="M1000 1425 c0 -20 5 -25 25 -25 20 0 25 -5 25 -25 0 -24 2 -25 75
-25 73 0 75 -1 75 -25 l0 -25 100 0 100 0 0 25 0 25 -100 0 -100 0 0 25 c0 24
-2 25 -75 25 -73 0 -75 1 -75 25 0 20 -5 25 -25 25 -20 0 -25 -5 -25 -25z"/>
<path d="M1500 1275 c0 -20 -5 -25 -25 -25 -20 0 -25 -5 -25 -25 l0 -25 125 0
125 0 0 -25 0 -25 100 0 100 0 0 25 c0 20 -5 25 -25 25 -20 0 -25 5 -25 25 0
20 -5 25 -25 25 -20 0 -25 5 -25 25 l0 25 -150 0 -150 0 0 -25z"/>
<path d="M1950 1275 c0 -23 3 -25 50 -25 47 0 50 2 50 25 0 23 -3 25 -50 25
-47 0 -50 -2 -50 -25z"/>
<path d="M1550 975 l0 -25 -125 0 -125 0 0 -50 c0 -47 2 -50 25 -50 20 0 25
-5 25 -25 0 -20 5 -25 25 -25 23 0 25 3 25 50 l0 50 225 0 225 0 0 -25 c0 -20
-5 -25 -25 -25 -20 0 -25 -5 -25 -25 l0 -25 -175 0 -175 0 0 -25 c0 -20 5 -25
25 -25 20 0 25 -5 25 -25 0 -20 5 -25 25 -25 20 0 25 -5 25 -25 l0 -25 125 0
125 0 0 50 0 50 50 0 c47 0 50 2 50 25 0 23 3 25 50 25 l50 0 0 50 c0 47 -2
50 -25 50 -20 0 -25 5 -25 25 0 23 -3 25 -50 25 -47 0 -50 2 -50 25 l0 25
-150 0 -150 0 0 -25z"/>
<path d="M1900 150 c0 -47 -2 -50 -25 -50 -20 0 -25 -5 -25 -25 0 -20 -5 -25
-25 -25 -20 0 -25 -5 -25 -25 0 -24 2 -25 75 -25 l75 0 0 100 0 100 -25 0
c-23 0 -25 -3 -25 -50z"/>
<path d="M1550 25 c0 -20 5 -25 25 -25 20 0 25 5 25 25 0 20 -5 25 -25 25 -20
0 -25 -5 -25 -25z"/>
</g>
</svg>
